<?xml version="1.0" encoding="utf-8"?>
<!-- Generator: Adobe Illustrator 23.0.1, SVG Export Plug-In . SVG Version: 6.00 Build 0)  -->
<svg version="1.1" id="Слой_1" xmlns="http://www.w3.org/2000/svg" xmlns:xlink="http://www.w3.org/1999/xlink" x="0px" y="0px"
	 viewBox="0 0 500 500" style="enable-background:new 0 0 500 500;" xml:space="preserve">
<style type="text/css">
	.st0{fill:none;}
	.st1{fill:#B0B7BB;}
	.st2{fill:#33AAE1;}
	.st3{fill:#1F70C1;}
	.st4{fill:#FF0000;}
	.st5{fill:#FFFFFF;}
	.st6{fill:#E33629;}
	.st7{fill:#F8BD00;}
	.st8{fill:#587DBD;}
	.st9{fill:#319F43;}
	.st10{clip-path:url(#SVGID_1_);fill:url(#SVGID_2_);}
	.st11{clip-path:url(#SVGID_3_);fill:url(#SVGID_4_);}
	.st12{clip-path:url(#SVGID_5_);fill:url(#SVGID_6_);}
	.st13{clip-path:url(#SVGID_7_);fill:url(#SVGID_8_);}
	.st14{clip-path:url(#SVGID_9_);fill:url(#SVGID_10_);}
	.st15{clip-path:url(#SVGID_11_);fill:url(#SVGID_12_);}
	.st16{clip-path:url(#SVGID_13_);fill:url(#SVGID_14_);}
	.st17{clip-path:url(#SVGID_15_);fill:url(#SVGID_16_);}
	.st18{fill:#FFD200;}
	.st19{fill:#0039A6;}
	.st20{fill:#D52B1E;}
	.st21{fill-rule:evenodd;clip-rule:evenodd;fill:#6FDCFF;}
	.st22{fill-rule:evenodd;clip-rule:evenodd;fill:#FFE400;}
	.st23{fill-rule:evenodd;clip-rule:evenodd;fill:#FFFFFF;}
	.st24{fill-rule:evenodd;clip-rule:evenodd;fill:#00267F;}
	.st25{fill-rule:evenodd;clip-rule:evenodd;fill:#F31830;}
</style>
<rect class="st0" width="42" height="42"/>
<g transform="matrix(-1 0 0 1 60 0)">
	<g>
		<path d="M30.7,18.8c-1,0-1.9,0.8-1.9,1.9c0,1,0.8,1.9,1.9,1.9s1.9-0.8,1.9-1.9C32.6,19.7,31.7,18.8,30.7,18.8z M30.7,21.5
			c-0.4,0-0.8-0.4-0.8-0.8s0.4-0.8,0.8-0.8s0.8,0.4,0.8,0.8S31.1,21.5,30.7,21.5z"/>
		<path d="M55,22.6c0-0.8-0.3-1.6-0.8-2.1c0-0.6-0.1-1.2-0.3-1.8c-0.1-0.3-0.4-0.4-0.7-0.3c-0.3,0.1-0.4,0.4-0.3,0.7
			c0.1,0.2,0.1,0.4,0.2,0.6c-0.4-0.2-0.8-0.3-1.3-0.3c0,0-0.1,0-0.1,0c-0.1,0-0.1,0-0.2,0c-0.1,0-0.3,0-0.4,0c-1-2.4-2.7-4.3-5-5.6
			c0.2-0.7,0.3-1.4,0.3-2.1c0-3.7-3-6.7-6.7-6.7c-3.7,0-6.7,3-6.7,6.7c0,0.5,0.1,1,0.2,1.5c-0.5,0.2-0.9,0.3-1.2,0.4
			c-2.3-0.9-3.9-1.3-5.2-1.1c-0.3,0-0.6,0.3-0.6,0.6c-0.1,0.3,0.1,0.6,0.4,0.8c0.7,0.3,1,1.2,1.4,2.1c0.1,0.2,0.2,0.5,0.3,0.7
			c-1.4,1.4-1.6,2.6-1.9,4.3h-0.7c-1.7,0-2.6,1.2-2.6,3.3v1.9c0,2.1,1,3.4,2.6,3.4H26c0.4,1,1,1.9,1.7,2.7L26.9,34
			c-0.3,0.7-0.2,1.4,0.2,2c0.4,0.6,1.1,1,1.8,1h3.6c0.5,0,0.9-0.3,1-0.7l0.2-0.5c1.7,0.5,3.6,0.8,5.6,0.8c1.7,0,3.2-0.2,4.6-0.6l0,0
			c0.2,0.6,0.7,1,1.4,1h3.2c0.8,0,1.5-0.4,1.9-1c0.4-0.6,0.5-1.4,0.3-2.1l-0.6-1.8c1.4-1.7,2.2-3.9,2.2-6.4c0,0,0,0,0,0
			C53.8,25.5,55,24.1,55,22.6z M51.7,23.1L51.7,23.1c-0.1,0-0.2,0-0.2,0c-0.7,0-1.3-0.6-1.3-1.3c0-0.1,0-0.2,0-0.2c0,0,0,0,0-0.1
			c0-0.1,0-0.1,0.1-0.2c0,0,0,0,0-0.1c0.1-0.1,0.2-0.3,0.3-0.4c0,0,0,0,0.1-0.1c0,0,0.1-0.1,0.1-0.1c0,0,0.1,0,0.1-0.1
			c0,0,0.1,0,0.1-0.1c0,0,0.1,0,0.1-0.1l0,0c0.2-0.1,0.3-0.1,0.5-0.1c0.7,0,1.3,0.6,1.3,1.3C52.9,22.4,52.4,23,51.7,23.1z M39.8,6
			c3.1,0,5.6,2.5,5.6,5.6c0,0.7-0.1,1.3-0.3,1.9L45,13.8c-0.3,0.6-0.6,1.2-1.1,1.7c-0.1,0-0.1-0.1-0.2-0.1c-0.2-0.1-0.3-0.1-0.5-0.2
			c-0.1-0.1-0.3-0.1-0.4-0.1c-0.2,0-0.3-0.1-0.5-0.1c-0.3-0.1-0.6-0.1-0.8-0.2c-0.1,0-0.3,0-0.4-0.1c-0.2,0-0.3,0-0.5,0
			c-0.1,0-0.3,0-0.4,0c-0.2,0-0.3,0-0.5,0c-0.2,0-0.3,0-0.5,0c-0.1,0-0.3,0-0.4,0.1c-0.2,0-0.4,0.1-0.6,0.1c-0.1,0-0.2,0-0.3,0.1
			c-0.3,0.1-0.6,0.2-0.9,0.3c-0.1,0-0.1,0.1-0.2,0.1c-0.2,0.1-0.5,0.2-0.7,0.3c0,0-0.1,0-0.1,0c-0.2-0.2-0.3-0.3-0.5-0.5
			c0,0,0,0-0.1-0.1c-0.1-0.2-0.3-0.3-0.4-0.5c0,0,0,0,0,0c-0.3-0.4-0.5-0.8-0.6-1.3l-0.1-0.2c-0.1-0.5-0.2-1-0.2-1.6
			C34.2,8.6,36.7,6,39.8,6z M32.5,36h-3.6c-0.4,0-0.7-0.2-0.9-0.5c-0.2-0.3-0.2-0.7-0.1-1l0.6-1.4c1.2,1,2.6,1.9,4.3,2.5L32.5,36z
			 M49.6,35.4c-0.2,0.3-0.6,0.5-1,0.5h-3.2c-0.2,0-0.3-0.1-0.3-0.3l0,0c1.7-0.6,3.2-1.5,4.3-2.6l0.4,1.2
			C49.9,34.7,49.8,35.1,49.6,35.4z M48.7,32.1C48.7,32.1,48.7,32.1,48.7,32.1c-0.2,0.2-0.5,0.4-0.7,0.6c-0.1,0-0.1,0.1-0.2,0.1
			c-0.2,0.1-0.4,0.3-0.6,0.4c-0.1,0.1-0.2,0.1-0.2,0.2c-0.2,0.2-0.5,0.3-0.7,0.4c-0.1,0-0.2,0.1-0.3,0.1c-0.2,0.1-0.4,0.2-0.6,0.3
			c-0.1,0-0.2,0.1-0.3,0.1c-0.2,0.1-0.5,0.2-0.7,0.3c-0.1,0-0.1,0-0.2,0.1l0,0c-1.4,0.5-3,0.7-4.8,0.7c-2.2,0-4.3-0.4-6.1-1
			c-0.1,0-0.2-0.1-0.3-0.1c-3-1.2-5.3-3.1-6.2-5.6l-0.1-0.4h-1.1c-1.3,0-1.6-1.2-1.6-2.3v-1.9c0-2.2,1.2-2.2,1.6-2.2h1.6l0.1-0.5
			c0.3-2,0.4-3,1.9-4.4l0.3-0.3l-0.2-0.3c-0.1-0.3-0.3-0.6-0.4-0.9c-0.3-0.7-0.5-1.5-1.1-2.1c1,0.1,2.2,0.4,4,1.1l0.2,0.1l0.2-0.1
			c0.3-0.1,0.8-0.3,1.4-0.5c0.1,0.3,0.2,0.5,0.4,0.8c0,0,0,0,0,0.1c0.1,0.2,0.3,0.4,0.4,0.6c0,0,0.1,0.1,0.1,0.1
			c0.1,0.2,0.3,0.4,0.5,0.5c0,0,0.1,0.1,0.1,0.1c0,0,0.1,0.1,0.1,0.1c-0.3,0.2-0.6,0.5-0.8,0.7c-0.2,0.2-0.2,0.5,0,0.8
			c0.2,0.2,0.5,0.2,0.8,0c0.3-0.3,0.7-0.7,1.1-0.9l0.1-0.1c0.2-0.1,0.3-0.2,0.5-0.3c0.1,0,0.1-0.1,0.2-0.1c0.1-0.1,0.3-0.1,0.4-0.2
			c0.1,0,0.1,0,0.2-0.1c0.2-0.1,0.4-0.1,0.6-0.2c0,0,0.1,0,0.1,0c0.2-0.1,0.4-0.1,0.6-0.1c0,0,0,0,0.1,0c1.4-0.3,2.8-0.1,4.1,0.4
			c0,0,0,0,0,0c0.9,0.4,1.7,0.9,2.4,1.6c0.1,0.1,0.2,0.2,0.4,0.2c0.1,0,0.3-0.1,0.4-0.2c0.2-0.2,0.2-0.5,0-0.8
			c-0.4-0.4-0.9-0.8-1.4-1.1c0,0,0.1-0.1,0.1-0.2c0.1-0.1,0.1-0.2,0.2-0.3c0.1-0.1,0.1-0.2,0.2-0.3c0.1-0.1,0.1-0.2,0.1-0.2
			c0.1-0.1,0.1-0.2,0.2-0.3c0,0,0,0,0-0.1c2,1.2,3.6,2.9,4.5,5c-0.1,0.1-0.2,0.2-0.3,0.3c0,0,0,0-0.1,0.1c-0.2,0.2-0.4,0.4-0.5,0.7
			c0,0,0,0,0,0c-0.1,0.1-0.1,0.3-0.1,0.4c0,0,0,0.1,0,0.1c0,0.1,0,0.3,0,0.4c0,0.2,0,0.3,0,0.5c0,0.1,0,0.1,0,0.1
			c0,0.1,0.1,0.2,0.1,0.3c0,0.1,0.1,0.1,0.1,0.2c0,0.1,0.1,0.2,0.1,0.2c0,0.1,0.1,0.1,0.1,0.2c0.1,0.1,0.1,0.1,0.2,0.2
			c0,0,0.1,0.1,0.1,0.1c0.1,0.1,0.1,0.1,0.2,0.2c0.1,0,0.1,0.1,0.2,0.1c0.1,0,0.1,0.1,0.2,0.1c0.1,0,0.1,0.1,0.2,0.1
			c0.1,0,0.2,0.1,0.2,0.1c0.1,0,0.1,0,0.2,0c0,0,0.1,0,0.1,0c0,0.5,0.1,1.1,0.1,1.6C51.3,28.3,50.3,30.5,48.7,32.1z M52.3,24.6
			c0-0.2,0-0.4-0.1-0.6c0.8-0.3,1.5-1,1.6-1.9c0,0.1,0,0.3,0,0.4C53.9,23.6,53.2,24.4,52.3,24.6z"/>
		<path d="M37,15c0.1,0.1,0.2,0.1,0.3,0.1c0.2,0,0.3-0.1,0.4-0.2c0.2-0.2,0.1-0.6-0.1-0.7c-0.8-0.7-1.3-1.6-1.3-2.7
			c0-1.9,1.5-3.4,3.4-3.4s3.4,1.5,3.4,3.4c0,1-0.4,1.8-1.1,2.5c-0.2,0.2-0.2,0.5,0,0.8c0.2,0.2,0.5,0.2,0.8,0c0.9-0.8,1.4-2,1.4-3.3
			c0-2.5-2-4.5-4.5-4.5s-4.5,2-4.5,4.5C35.3,12.8,35.9,14.1,37,15z"/>
		<path d="M40,33.3c-2.4,0.2-4.4-0.1-6.5-1c-0.3-0.1-0.6,0-0.7,0.3c-0.1,0.3,0,0.6,0.3,0.7c1.8,0.8,3.6,1.2,5.6,1.2
			c0.5,0,0.9,0,1.4-0.1c0.3,0,0.5-0.3,0.5-0.6C40.6,33.5,40.3,33.3,40,33.3z"/>
	</g>
</g>
<rect x="42" class="st0" width="42" height="42"/>
<g>
	<g>
		<g>
			<g>
				<path d="M74.4,17.3C74.4,11,69.3,5.9,63,5.9S51.6,11,51.6,17.3c0,0,0,0,0,0C49,17.5,47,19.6,47,22.1v0.6c0,2.7,2.2,4.9,4.9,4.9
					h0.3l2,3.2c1.4,2.3,3.9,3.6,6.5,3.6h0.4c0.3,1,1.1,1.7,2.2,1.7c1.3,0,2.3-1,2.3-2.3c0-1.3-1-2.3-2.3-2.3c-1.1,0-1.9,0.7-2.2,1.7
					h-0.4c-2.3,0-4.4-1.2-5.6-3.1l-1.7-2.6h0.4c0.6,0,1.1-0.5,1.1-1.1v-8c0-0.6-0.5-1.1-1.1-1.1h-1.1C52.7,11.6,57.3,7,63,7
					s10.3,4.6,10.3,10.3h-1.1c-0.6,0-1.1,0.5-1.1,1.1v8c0,0.6,0.5,1.1,1.1,1.1h2c2.7,0,4.9-2.2,4.9-4.9v-0.6
					C79,19.6,77,17.5,74.4,17.3z M63.3,32.7c0.6,0,1.1,0.5,1.1,1.1S63.9,35,63.3,35c-0.6,0-1.1-0.5-1.1-1.1S62.7,32.7,63.3,32.7z
					 M53.9,18.4v8h-2c-2.1,0-3.7-1.7-3.7-3.7v-0.6c0-2.1,1.7-3.7,3.7-3.7H53.9z M77.9,22.7c0,2.1-1.7,3.7-3.7,3.7h-2v-8h2
					c2.1,0,3.7,1.7,3.7,3.7V22.7z"/>
				<path d="M67.7,10.2c-0.1,0-0.1-0.1-0.2-0.1c-0.1-0.1-0.2-0.1-0.2-0.1c-0.3-0.2-0.6-0.1-0.8,0.2c-0.1,0.3-0.1,0.6,0.2,0.8
					c0.1,0,0.1,0.1,0.2,0.1s0.2,0.1,0.3,0.1c0.1,0.1,0.2,0.1,0.3,0.1c0.2,0,0.4-0.1,0.5-0.3C68.1,10.7,68,10.3,67.7,10.2z"/>
				<path d="M63,8.7c-2.4,0-4.7,1.1-6.3,2.9c-0.2,0.2-0.2,0.6,0.1,0.8c0.1,0.1,0.2,0.1,0.4,0.1c0.2,0,0.3-0.1,0.4-0.2
					c1.4-1.6,3.3-2.5,5.4-2.5c0.5,0,1,0.1,1.5,0.2c0.3,0.1,0.6-0.1,0.7-0.4c0.1-0.3-0.1-0.6-0.4-0.7C64.2,8.8,63.6,8.7,63,8.7z"/>
			</g>
		</g>
	</g>
</g>
<rect x="84" class="st0" width="42" height="42"/>
<g>
	<g>
		<g>
			<g>
				<path d="M121,21c0-0.1-0.1-0.3-0.2-0.4l-2.1-2.1l1.2-2.6c0.1-0.3,0-0.6-0.3-0.7c0,0,0,0,0,0l-2.6-1.2l0.3-2.9
					c0-0.3-0.2-0.6-0.5-0.6c0,0,0,0,0,0l-2.9-0.2l-0.7-2.8c-0.1-0.3-0.4-0.5-0.7-0.4c0,0,0,0,0,0l-2.8,0.8l-1.7-2.4
					c-0.2-0.2-0.5-0.3-0.7-0.1c0,0,0,0,0,0L105,7l-2.4-1.7c-0.2-0.2-0.6-0.1-0.7,0.1c0,0,0,0,0,0l-1.7,2.4l-2.8-0.8
					c-0.3-0.1-0.6,0.1-0.7,0.4c0,0,0,0,0,0L96,10.3l-2.9,0.2c-0.3,0-0.5,0.3-0.5,0.6c0,0,0,0,0,0l0.3,2.9l-2.6,1.2
					c-0.3,0.1-0.4,0.4-0.3,0.7c0,0,0,0,0,0l1.2,2.6l-2.1,2.1c-0.2,0.2-0.2,0.5,0,0.8c0,0,0,0,0,0l2.1,2.1L90,26.1
					c-0.1,0.3,0,0.6,0.3,0.7c0,0,0,0,0,0l2.6,1.2l-0.3,2.9c0,0.3,0.2,0.6,0.5,0.6c0,0,0,0,0,0l2.9,0.2l0.7,2.8
					c0.1,0.3,0.4,0.5,0.7,0.4c0,0,0,0,0,0l2.8-0.8l1.7,2.4c0.2,0.2,0.5,0.3,0.7,0.1c0,0,0,0,0,0L105,35l2.4,1.7
					c0.2,0.2,0.6,0.1,0.7-0.1c0,0,0,0,0,0l1.7-2.4l2.8,0.8c0.3,0.1,0.6-0.1,0.7-0.4c0,0,0,0,0,0l0.7-2.8l2.9-0.2
					c0.3,0,0.5-0.3,0.5-0.6c0,0,0,0,0,0l-0.3-2.9l2.6-1.2c0.3-0.1,0.4-0.4,0.3-0.7c0,0,0,0,0,0l-1.2-2.6l2.1-2.1
					C120.9,21.3,121,21.1,121,21z M117.8,22.9c-0.2,0.2-0.2,0.4-0.1,0.6l1.2,2.5l-2.5,1.1c-0.2,0.1-0.3,0.3-0.3,0.5l0.2,2.7
					l-2.7,0.2c-0.2,0-0.4,0.2-0.5,0.4l-0.7,2.7l-2.7-0.7c-0.2-0.1-0.5,0-0.6,0.2l-1.6,2.3l-2.2-1.6c-0.2-0.1-0.4-0.1-0.6,0l-2.2,1.6
					l-1.6-2.3c-0.1-0.1-0.3-0.2-0.4-0.2c0,0-0.1,0-0.1,0l-2.7,0.7l-0.7-2.7c-0.1-0.2-0.2-0.4-0.5-0.4l-2.7-0.2l0.2-2.7
					c0-0.2-0.1-0.4-0.3-0.5L91.2,26l1.2-2.5c0.1-0.2,0.1-0.4-0.1-0.6l-2-1.9l2-1.9c0.2-0.2,0.2-0.4,0.1-0.6L91.2,16l2.5-1.1
					c0.2-0.1,0.3-0.3,0.3-0.5l-0.2-2.7l2.7-0.2c0.2,0,0.4-0.2,0.5-0.4l0.7-2.7l2.7,0.7c0.2,0.1,0.4,0,0.6-0.2l1.6-2.3l2.2,1.6
					c0.2,0.1,0.4,0.1,0.6,0l2.2-1.6l1.6,2.3c0.1,0.2,0.4,0.3,0.6,0.2l2.7-0.7l0.7,2.7c0.1,0.2,0.2,0.4,0.5,0.4l2.7,0.2l-0.2,2.7
					c0,0.2,0.1,0.4,0.3,0.5l2.5,1.2l-1.2,2.5c-0.1,0.2-0.1,0.4,0.1,0.6l2,1.9L117.8,22.9z"/>
				<path d="M111.8,14.2c-0.6-0.6-1.6-0.6-2.3,0L98.2,25.5c-0.6,0.6-0.6,1.6,0,2.3c0.6,0.6,1.6,0.6,2.3,0l11.3-11.3
					C112.4,15.8,112.4,14.8,111.8,14.2z M111.1,15.7C111,15.7,111,15.7,111.1,15.7L99.7,27c-0.2,0.2-0.5,0.2-0.8,0
					c-0.2-0.2-0.2-0.5,0-0.8c0,0,0,0,0,0L110.3,15c0.2-0.2,0.5-0.2,0.8,0C111.2,15.1,111.3,15.5,111.1,15.7z"/>
				<path d="M109.3,22.1c-1.8,0-3.2,1.4-3.2,3.2c0,1.8,1.4,3.2,3.2,3.2s3.2-1.4,3.2-3.2C112.5,23.5,111,22.1,109.3,22.1z
					 M109.3,27.4c-1.2,0-2.1-1-2.1-2.1c0-1.2,1-2.1,2.1-2.1c1.2,0,2.1,1,2.1,2.1C111.4,26.4,110.4,27.4,109.3,27.4z"/>
				<path d="M100.7,19.9c1.8,0,3.2-1.4,3.2-3.2s-1.4-3.2-3.2-3.2s-3.2,1.4-3.2,3.2C97.5,18.5,99,19.9,100.7,19.9z M100.7,14.6
					c1.2,0,2.1,1,2.1,2.1s-1,2.1-2.1,2.1c-1.2,0-2.1-1-2.1-2.1S99.6,14.6,100.7,14.6z"/>
			</g>
		</g>
	</g>
</g>
<rect y="42" class="st0" width="40" height="40"/>
<g>
	<g>
		<g id="Bag">
			<g>
				<path d="M27.5,57.6c0-0.3-0.3-0.6-0.6-0.6h-3.1v-1.3c0-2.1-1.7-3.8-3.8-3.8c-2.1,0-3.8,1.7-3.8,3.8V57h-3.1
					c-0.3,0-0.6,0.2-0.6,0.6l-1.3,13.8c0,0.2,0,0.3,0.2,0.5c0.1,0.1,0.3,0.2,0.5,0.2h16.3c0.2,0,0.3-0.1,0.5-0.2
					c0.1-0.1,0.2-0.3,0.2-0.5L27.5,57.6z M17.5,55.8c0-1.4,1.1-2.5,2.5-2.5c1.4,0,2.5,1.1,2.5,2.5V57h-5V55.8z M12.6,70.8l1.1-12.5
					h2.6v1.4c-0.4,0.2-0.6,0.6-0.6,1.1c0,0.7,0.6,1.3,1.3,1.3s1.3-0.6,1.3-1.3c0-0.5-0.3-0.9-0.6-1.1v-1.4h5v1.4
					c-0.4,0.2-0.6,0.6-0.6,1.1c0,0.7,0.6,1.3,1.3,1.3s1.3-0.6,1.3-1.3c0-0.5-0.3-0.9-0.6-1.1v-1.4h2.6l1.1,12.5H12.6z"/>
			</g>
		</g>
	</g>
</g>
<rect x="40" y="42" class="st0" width="40" height="40"/>
<g>
	<g>
		<g>
			<path d="M69.9,61.6c-0.2-0.2-4.4-6-9.9-6s-9.7,5.7-9.9,6c-0.2,0.2-0.2,0.5,0,0.8c0.2,0.2,4.4,6,9.9,6s9.7-5.7,9.9-6
				C70,62.2,70,61.8,69.9,61.6z M60,67.1c-4,0-7.5-3.8-8.5-5.1c1-1.2,4.5-5.1,8.5-5.1c4,0,7.5,3.8,8.5,5.1
				C67.5,63.2,64,67.1,60,67.1z"/>
		</g>
	</g>
	<g>
		<g>
			<path d="M60,58c-2.2,0-4,1.8-4,4c0,2.2,1.8,4,4,4s4-1.8,4-4S62.2,58,60,58z M60,64.6c-1.5,0-2.6-1.2-2.6-2.6s1.2-2.6,2.6-2.6
				s2.6,1.2,2.6,2.6S61.5,64.6,60,64.6z"/>
		</g>
	</g>
</g>
<rect x="80" y="42" class="st0" width="40" height="40"/>
<g>
	<polygon points="101.5,53.1 101.5,54.4 106.7,54.4 100,61 93.3,54.3 98.5,54.3 98.5,53 91.1,53 91.1,60.5 92.4,60.5 92.4,55.3 
		99,62 92.3,68.7 92.3,63.5 91,63.5 91,70.9 98.5,70.9 98.5,69.6 93.3,69.6 100,63 106.7,69.7 101.5,69.7 101.5,71 108.9,71 
		108.9,63.5 107.6,63.5 107.6,68.7 101,62 107.7,55.3 107.7,60.5 109,60.5 109,53.1 	"/>
</g>
<rect x="120" y="42" class="st0" width="40" height="40"/>
<path d="M144.4,52.5c-1.7,0-3.3,0.8-4.4,2.1c-1.1-1.3-2.7-2.1-4.4-2.1c-3.1,0-5.6,2.5-5.6,5.6c0,2.4,1.5,5.3,4.3,8.4
	c2.2,2.4,4.6,4.3,5.3,4.8l0.4,0.3l0.4-0.3c0.7-0.5,3.1-2.4,5.3-4.8c2.9-3.1,4.3-5.9,4.3-8.4C150,55,147.5,52.5,144.4,52.5z
	 M144.7,65.6c-1.8,2-3.8,3.6-4.7,4.3c-0.9-0.7-2.9-2.3-4.7-4.3c-2.6-2.8-4-5.4-4-7.5c0-2.4,1.9-4.3,4.3-4.3c1.6,0,3,0.9,3.8,2.2
	l0.6,1l0.6-1c0.8-1.4,2.2-2.2,3.8-2.2c2.4,0,4.3,1.9,4.3,4.3C148.7,60.2,147.3,62.8,144.7,65.6z"/>
<rect x="160" y="42" class="st0" width="28" height="28"/>
<g>
	<g>
		<path class="st1" d="M177.9,50.9c-1.6-0.1-3,0.9-3.7,0.9c-0.8,0-2-0.9-3.2-0.9c-1.7,0-3.2,1-4.1,2.5c-1.7,3-0.4,7.4,1.2,9.9
			c0.8,1.2,1.8,2.5,3.1,2.5c1.2,0,1.7-0.8,3.2-0.8c1.5,0,1.9,0.8,3.2,0.8c1.3,0,2.2-1.2,3-2.4c0.9-1.4,1.3-2.7,1.4-2.8
			c0,0-2.6-1-2.6-4c0-2.5,2-3.7,2.1-3.7C180.3,51.2,178.5,51,177.9,50.9"/>
	</g>
	<g>
		<path class="st1" d="M176.9,49.3c0.7-0.8,1.1-2,1-3.1c-1,0-2.2,0.7-2.9,1.5c-0.6,0.7-1.2,1.9-1,3
			C175.1,50.8,176.2,50.2,176.9,49.3"/>
	</g>
</g>
<rect x="200" y="42" class="st0" width="28" height="28"/>
<path id="path13" class="st2" d="M204.2,48.9l8-1.1v7.7h-8L204.2,48.9z M212.2,56.5v7.7l-8-1.1l0-6.6L212.2,56.5L212.2,56.5
	L212.2,56.5z M213.1,47.7l10.7-1.5v9.3h-10.7V47.7z M223.8,56.5v9.2l-10.7-1.5v-7.8H223.8z"/>
<rect x="240" y="42" class="st0" width="28" height="28"/>
<path class="st3" d="M244.2,52.1v0.5h3.8v-0.5H244.2z M248.6,52.1v0.5h5.4c0,0-0.6-0.5-1.3-0.5H248.6z M255.1,52.1v0.5h3.3l-0.2-0.5
	H255.1z M260.7,52.1l-0.2,0.5h3.3v-0.5H260.7z M244.2,53.1v0.5h3.8v-0.5H244.2z M248.6,53.1v0.5h6.1c0,0-0.1-0.4-0.2-0.5H248.6z
	 M255.1,53.1v0.5h3.6l-0.2-0.5H255.1z M260.3,53.1l-0.2,0.5h3.6v-0.5H260.3z M245.3,54.2v0.5h1.7v-0.5H245.3z M249.7,54.2v0.5h1.7
	v-0.5H249.7z M252.9,54.2v0.5h1.7c0,0,0.1-0.3,0.1-0.5H252.9z M256.2,54.2v0.5h2.9l-0.2-0.5H256.2z M260,54.2l-0.2,0.5h2.9v-0.5H260
	z M245.3,55.2v0.5h1.7v-0.5H245.3z M249.7,55.2v0.5h4.2c0,0,0.4-0.3,0.5-0.5H249.7z M256.2,55.2v0.5h1.7v-0.3l0.1,0.3h3l0.1-0.3v0.3
	h1.7v-0.5h-3.1l-0.2,0.5l-0.2-0.5H256.2z M245.3,56.3v0.5h1.7v-0.5H245.3z M249.7,56.3v0.5h4.7c-0.1-0.3-0.5-0.5-0.5-0.5H249.7z
	 M256.2,56.3v0.5h1.7v-0.5H256.2z M258.1,56.3l0.2,0.5h2.3l0.2-0.5H258.1z M261.1,56.3v0.5h1.7v-0.5H261.1z M245.3,57.3v0.5h1.7
	v-0.5H245.3z M249.7,57.3v0.5h1.7v-0.5H249.7z M252.9,57.3v0.5h1.8c0-0.3-0.1-0.5-0.1-0.5H252.9z M256.2,57.3v0.5h1.7v-0.5H256.2z
	 M258.5,57.3l0.2,0.5h1.5l0.2-0.5H258.5z M261.1,57.3v0.5h1.7v-0.5H261.1z M244.2,58.3v0.5h3.8v-0.5H244.2z M248.6,58.3v0.5h5.9
	c0.1-0.1,0.2-0.5,0.2-0.5H248.6z M255.1,58.3v0.5h2.7v-0.5H255.1z M258.9,58.3l0.2,0.5h0.8l0.2-0.5H258.9z M261.1,58.3v0.5h2.7v-0.5
	H261.1z M244.2,59.4v0.5h3.8v-0.5H244.2z M248.6,59.4v0.5h4.1c0.7,0,1.3-0.5,1.3-0.5H248.6z M255.1,59.4v0.5h2.7v-0.5H255.1z
	 M259.2,59.4l0.2,0.5l0,0l0.2-0.5H259.2z M261.1,59.4v0.5h2.7v-0.5H261.1z"/>
<rect x="280" y="42" class="st0" width="28" height="28"/>
<path id="path4496" class="st4" d="M287,46.2l-2.6,2.6l7.7,7.7v9.2h3.7v-9.2l7.7-7.7l-2.6-2.6l-7,7L287,46.2"/>
<rect x="320" y="42" class="st0" width="28" height="28"/>
<g>
	<path class="st5" d="M331,46.7c-2.4,0.8-4.4,2.6-5.6,4.9c-0.4,0.8-0.7,1.6-0.9,2.5c-0.4,2.1-0.1,4.4,0.9,6.3
		c0.6,1.3,1.6,2.4,2.7,3.3c1,0.8,2.3,1.5,3.6,1.8c1.6,0.4,3.4,0.4,5,0.1c1.5-0.3,2.9-1.1,4-2.1c1.2-1.1,2-2.5,2.5-4.1
		c0.5-1.7,0.6-3.5,0.2-5.2c-3.1,0-6.1,0-9.2,0c0,1.3,0,2.6,0,3.8c1.8,0,3.6,0,5.3,0c-0.2,1.2-0.9,2.3-2,3c-0.6,0.4-1.4,0.7-2.2,0.9
		c-0.8,0.1-1.6,0.1-2.3,0c-0.8-0.2-1.5-0.5-2.2-0.9c-1-0.7-1.8-1.8-2.2-3c-0.4-1.2-0.4-2.6,0-3.8c0.3-0.9,0.8-1.7,1.4-2.3
		c0.8-0.8,1.8-1.4,2.9-1.6c0.9-0.2,1.9-0.2,2.9,0.1c0.8,0.2,1.5,0.7,2.1,1.2c0.6-0.6,1.2-1.2,1.8-1.8c0.3-0.3,0.6-0.6,1-1
		c-0.9-0.8-2-1.5-3.2-2C335.5,46,333.1,46,331,46.7z"/>
	<g>
		<path class="st6" d="M331,46.7c2.1-0.7,4.5-0.7,6.6,0.1c1.2,0.4,2.2,1.1,3.2,2c-0.3,0.3-0.6,0.6-1,1c-0.6,0.6-1.2,1.2-1.8,1.8
			c-0.6-0.6-1.3-1-2.1-1.2C335,50,334,50,333,50.2c-1.1,0.2-2.1,0.8-2.9,1.6c-0.6,0.6-1.1,1.4-1.4,2.3c-1.1-0.8-2.1-1.7-3.2-2.5
			C326.6,49.3,328.6,47.6,331,46.7z"/>
	</g>
	<g>
		<path class="st7" d="M324.6,54.1c0.2-0.9,0.5-1.7,0.9-2.5c1.1,0.8,2.1,1.7,3.2,2.5c-0.4,1.2-0.4,2.6,0,3.8
			c-1.1,0.8-2.1,1.7-3.2,2.5C324.5,58.5,324.2,56.2,324.6,54.1z"/>
	</g>
	<g>
		<path class="st8" d="M334.2,54.2c3.1,0,6.1,0,9.2,0c0.3,1.7,0.2,3.5-0.2,5.2c-0.4,1.5-1.3,3-2.5,4.1c-1-0.8-2.1-1.6-3.1-2.4
			c1-0.7,1.8-1.8,2-3c-1.8,0-3.6,0-5.3,0C334.2,56.7,334.2,55.4,334.2,54.2z"/>
	</g>
	<g>
		<path class="st9" d="M325.4,60.4c1.1-0.8,2.1-1.7,3.2-2.5c0.4,1.2,1.2,2.3,2.2,3c0.7,0.5,1.4,0.8,2.2,0.9c0.8,0.2,1.6,0.1,2.3,0
			c0.8-0.1,1.5-0.4,2.2-0.9c1,0.8,2.1,1.6,3.1,2.4c-1.1,1-2.5,1.7-4,2.1c-1.6,0.4-3.4,0.4-5-0.1c-1.3-0.3-2.5-1-3.6-1.8
			C327,62.8,326.1,61.7,325.4,60.4z"/>
	</g>
</g>
<rect x="360" y="42" class="st0" width="28" height="28"/>
<g>
	<g>
		<defs>
			<path id="SVGID_25_" d="M365.6,54.5c0.1,1.2,1,2,1,2c1.5,1.5,5.1,3.3,6,3.7c0,0,0.1,0,0.1,0c0,0,0,0,0-0.1
				c-2.3-5-5.5-8.8-5.5-8.8S365.5,52.8,365.6,54.5"/>
		</defs>
		<clipPath id="SVGID_1_">
			<use xlink:href="#SVGID_25_"  style="overflow:visible;"/>
		</clipPath>
		
			<radialGradient id="SVGID_2_" cx="-330.8822" cy="694.7219" r="2.1745" gradientTransform="matrix(6.4977 0 0 -6.4977 2526.5217 4564.5322)" gradientUnits="userSpaceOnUse">
			<stop  offset="0" style="stop-color:#F7BDA7"/>
			<stop  offset="1.406614e-02" style="stop-color:#F6B7A2"/>
			<stop  offset="0.427" style="stop-color:#E21118"/>
			<stop  offset="0.6846" style="stop-color:#E01118"/>
			<stop  offset="0.788" style="stop-color:#D91218"/>
			<stop  offset="0.8637" style="stop-color:#CD1317"/>
			<stop  offset="0.9259" style="stop-color:#BB1516"/>
			<stop  offset="0.9792" style="stop-color:#A51815"/>
			<stop  offset="1" style="stop-color:#9A1915"/>
		</radialGradient>
		<rect x="365.5" y="51.2" class="st10" width="7.2" height="9"/>
	</g>
	<g>
		<defs>
			<path id="SVGID_28_" d="M366,61.5c0.7,1.2,1.8,2.1,2.9,1.8c0.8-0.2,2.6-1.4,3.2-1.9h0c0,0,0-0.1,0-0.1c0-0.1-0.1-0.1-0.1-0.1v0
				L366,61.5z"/>
		</defs>
		<clipPath id="SVGID_3_">
			<use xlink:href="#SVGID_28_"  style="overflow:visible;"/>
		</clipPath>
		
			<radialGradient id="SVGID_4_" cx="-330.8716" cy="694.7256" r="2.1675" gradientTransform="matrix(6.4959 0 0 -6.4959 2525.8533 4563.3335)" gradientUnits="userSpaceOnUse">
			<stop  offset="0" style="stop-color:#F7BDA7"/>
			<stop  offset="1.406614e-02" style="stop-color:#F6B7A2"/>
			<stop  offset="0.427" style="stop-color:#E21118"/>
			<stop  offset="0.6846" style="stop-color:#E01118"/>
			<stop  offset="0.788" style="stop-color:#D91218"/>
			<stop  offset="0.8637" style="stop-color:#CD1317"/>
			<stop  offset="0.9259" style="stop-color:#BB1516"/>
			<stop  offset="0.9792" style="stop-color:#A51815"/>
			<stop  offset="1" style="stop-color:#9A1915"/>
		</radialGradient>
		<rect x="366" y="61.3" class="st11" width="6.1" height="2.3"/>
	</g>
	<g>
		<defs>
			<path id="SVGID_31_" d="M364.5,58.8c0.7,1.4,1.9,1.8,1.9,1.8c0.6,0.2,1.2,0.3,1.2,0.3c0.1,0,3.6,0,4.5,0c0,0,0.1,0,0.1,0
				c0,0,0-0.1,0-0.1c-2.6-1.8-7.8-4.5-7.8-4.5C363.9,57.7,364.5,58.8,364.5,58.8"/>
		</defs>
		<clipPath id="SVGID_5_">
			<use xlink:href="#SVGID_31_"  style="overflow:visible;"/>
		</clipPath>
		
			<radialGradient id="SVGID_6_" cx="-330.8765" cy="694.7298" r="2.1786" gradientTransform="matrix(6.4959 0 0 -6.4959 2525.8931 4563.2847)" gradientUnits="userSpaceOnUse">
			<stop  offset="0" style="stop-color:#F7BDA7"/>
			<stop  offset="1.406614e-02" style="stop-color:#F6B7A2"/>
			<stop  offset="0.427" style="stop-color:#E21118"/>
			<stop  offset="0.6846" style="stop-color:#E01118"/>
			<stop  offset="0.788" style="stop-color:#D91218"/>
			<stop  offset="0.8637" style="stop-color:#CD1317"/>
			<stop  offset="0.9259" style="stop-color:#BB1516"/>
			<stop  offset="0.9792" style="stop-color:#A51815"/>
			<stop  offset="1" style="stop-color:#9A1915"/>
		</radialGradient>
		<rect x="363.9" y="56.2" class="st12" width="8.3" height="4.7"/>
	</g>
	<g>
		<defs>
			<path id="SVGID_34_" d="M371.6,48.8c-1.6,0.4-2,1.9-2,1.9c-0.3,0.9,0,1.9,0,1.9c0.5,2.4,3.2,6.2,3.7,7.1c0,0,0.1,0,0.1,0
				c0.1,0,0.1-0.1,0.1-0.1l0,0c0.9-8.7-0.9-11-0.9-11C372.3,48.6,371.6,48.8,371.6,48.8"/>
		</defs>
		<clipPath id="SVGID_7_">
			<use xlink:href="#SVGID_34_"  style="overflow:visible;"/>
		</clipPath>
		
			<radialGradient id="SVGID_8_" cx="-330.8758" cy="694.7305" r="2.1766" gradientTransform="matrix(6.4972 0 0 -6.4972 2526.3318 4564.2378)" gradientUnits="userSpaceOnUse">
			<stop  offset="0" style="stop-color:#F7BDA7"/>
			<stop  offset="1.406614e-02" style="stop-color:#F6B7A2"/>
			<stop  offset="0.427" style="stop-color:#E21118"/>
			<stop  offset="0.6846" style="stop-color:#E01118"/>
			<stop  offset="0.788" style="stop-color:#D91218"/>
			<stop  offset="0.8637" style="stop-color:#CD1317"/>
			<stop  offset="0.9259" style="stop-color:#BB1516"/>
			<stop  offset="0.9792" style="stop-color:#A51815"/>
			<stop  offset="1" style="stop-color:#9A1915"/>
		</radialGradient>
		<rect x="369.3" y="48.6" class="st13" width="5" height="11.1"/>
	</g>
	<g>
		<defs>
			<path id="SVGID_37_" d="M374.5,59.6C374.5,59.6,374.6,59.7,374.5,59.6c0.1,0.1,0.1,0,0.1,0l0,0c0.6-0.8,3.2-4.7,3.7-7
				c0,0,0.3-1.1,0-1.9c0,0-0.4-1.5-2-1.9c0,0-0.5-0.1-0.9-0.2C375.4,48.6,373.6,50.9,374.5,59.6"/>
		</defs>
		<clipPath id="SVGID_9_">
			<use xlink:href="#SVGID_37_"  style="overflow:visible;"/>
		</clipPath>
		
			<radialGradient id="SVGID_10_" cx="-330.9041" cy="694.7004" r="2.1788" gradientTransform="matrix(6.505 0 0 -6.505 2529.0779 4569.4468)" gradientUnits="userSpaceOnUse">
			<stop  offset="0" style="stop-color:#F7BDA7"/>
			<stop  offset="1.406614e-02" style="stop-color:#F6B7A2"/>
			<stop  offset="0.427" style="stop-color:#E21118"/>
			<stop  offset="0.6846" style="stop-color:#E01118"/>
			<stop  offset="0.788" style="stop-color:#D91218"/>
			<stop  offset="0.8637" style="stop-color:#CD1317"/>
			<stop  offset="0.9259" style="stop-color:#BB1516"/>
			<stop  offset="0.9792" style="stop-color:#A51815"/>
			<stop  offset="1" style="stop-color:#9A1915"/>
		</radialGradient>
		<rect x="373.6" y="48.6" class="st14" width="5" height="11.1"/>
	</g>
	<g>
		<defs>
			<path id="SVGID_40_" d="M376,61.3C376,61.3,375.9,61.3,376,61.3c-0.1,0-0.1,0.1,0,0.1v0c0.6,0.4,2.3,1.6,3.2,1.9
				c0,0,1.6,0.5,2.9-1.8L376,61.3L376,61.3z"/>
		</defs>
		<clipPath id="SVGID_11_">
			<use xlink:href="#SVGID_40_"  style="overflow:visible;"/>
		</clipPath>
		
			<radialGradient id="SVGID_12_" cx="-330.8894" cy="694.7098" r="2.17" gradientTransform="matrix(6.5005 0 0 -6.5005 2527.5234 4566.457)" gradientUnits="userSpaceOnUse">
			<stop  offset="0" style="stop-color:#F7BDA7"/>
			<stop  offset="1.406614e-02" style="stop-color:#F6B7A2"/>
			<stop  offset="0.427" style="stop-color:#E21118"/>
			<stop  offset="0.6846" style="stop-color:#E01118"/>
			<stop  offset="0.788" style="stop-color:#D91218"/>
			<stop  offset="0.8637" style="stop-color:#CD1317"/>
			<stop  offset="0.9259" style="stop-color:#BB1516"/>
			<stop  offset="0.9792" style="stop-color:#A51815"/>
			<stop  offset="1" style="stop-color:#9A1915"/>
		</radialGradient>
		<rect x="375.9" y="61.3" class="st15" width="6.1" height="2.5"/>
	</g>
	<g>
		<defs>
			<path id="SVGID_43_" d="M375.9,60.7L375.9,60.7C375.9,60.7,375.8,60.8,375.9,60.7c0,0.1,0,0.1,0,0.1c0.9,0,4.5,0,4.6,0
				c0,0,0.5,0,1-0.2c0,0,1.3-0.4,1.9-1.9c0,0,0.6-1.2,0.1-2.6C383.6,56.2,378.5,59,375.9,60.7"/>
		</defs>
		<clipPath id="SVGID_13_">
			<use xlink:href="#SVGID_43_"  style="overflow:visible;"/>
		</clipPath>
		
			<radialGradient id="SVGID_14_" cx="-330.9047" cy="694.6979" r="2.1745" gradientTransform="matrix(6.5032 0 0 -6.5032 2528.5081 4568.2144)" gradientUnits="userSpaceOnUse">
			<stop  offset="0" style="stop-color:#F7BDA7"/>
			<stop  offset="1.406614e-02" style="stop-color:#F6B7A2"/>
			<stop  offset="0.427" style="stop-color:#E21118"/>
			<stop  offset="0.6846" style="stop-color:#E01118"/>
			<stop  offset="0.788" style="stop-color:#D91218"/>
			<stop  offset="0.8637" style="stop-color:#CD1317"/>
			<stop  offset="0.9259" style="stop-color:#BB1516"/>
			<stop  offset="0.9792" style="stop-color:#A51815"/>
			<stop  offset="1" style="stop-color:#9A1915"/>
		</radialGradient>
		<rect x="375.8" y="56.2" class="st16" width="8.3" height="4.7"/>
	</g>
	<g>
		<defs>
			<path id="SVGID_46_" d="M375.4,60L375.4,60C375.4,60,375.3,60.1,375.4,60c0,0.1,0.1,0.1,0.1,0.1c0.9-0.4,4.5-2.3,5.9-3.7
				c0,0,0.9-0.8,1-2c0.1-1.7-1.6-3.2-1.6-3.2S377.7,55,375.4,60"/>
		</defs>
		<clipPath id="SVGID_15_">
			<use xlink:href="#SVGID_46_"  style="overflow:visible;"/>
		</clipPath>
		
			<radialGradient id="SVGID_16_" cx="-330.9" cy="694.7023" r="2.1747" gradientTransform="matrix(6.5042 0 0 -6.5042 2528.802 4568.9106)" gradientUnits="userSpaceOnUse">
			<stop  offset="0" style="stop-color:#F7BDA7"/>
			<stop  offset="1.406614e-02" style="stop-color:#F6B7A2"/>
			<stop  offset="0.427" style="stop-color:#E21118"/>
			<stop  offset="0.6846" style="stop-color:#E01118"/>
			<stop  offset="0.788" style="stop-color:#D91218"/>
			<stop  offset="0.8637" style="stop-color:#CD1317"/>
			<stop  offset="0.9259" style="stop-color:#BB1516"/>
			<stop  offset="0.9792" style="stop-color:#A51815"/>
			<stop  offset="1" style="stop-color:#9A1915"/>
		</radialGradient>
		<rect x="375.3" y="51.2" class="st17" width="7.2" height="8.9"/>
	</g>
</g>
<g>
	<path d="M56.7,116.3c-2.1-4.1-5.2-7.7-8.9-10.4c-0.5-0.4-1.3-0.3-1.7,0.3s-0.3,1.3,0.3,1.7c3.4,2.5,6.2,5.8,8.1,9.6
		c2,3.9,3,8.2,3,12.6c0,15.2-12.4,27.6-27.6,27.6S2.4,145.2,2.4,130s12.4-27.6,27.6-27.6c0.7,0,1.2-0.5,1.2-1.2S30.7,100,30,100
		c-16.5,0-30,13.5-30,30s13.5,30,30,30s30-13.5,30-30C60,125.2,58.9,120.5,56.7,116.3z"/>
	<path d="M22.3,116.1c-0.4,0.2-0.6,0.6-0.6,1.1v26.8c0,0.7,0.5,1.2,1.2,1.2s1.2-0.5,1.2-1.2v-24.6L42.2,130l-13.3,8.6
		c-0.6,0.4-0.7,1.1-0.4,1.7c0.4,0.6,1.1,0.7,1.7,0.4l15-9.6c0.4-0.2,0.6-0.6,0.6-1s-0.2-0.8-0.6-1l-21.6-12.9
		C23.2,115.9,22.7,115.9,22.3,116.1z"/>
</g>
<rect x="100" y="100" class="st0" width="50" height="70"/>
<g>
	<g>
		<g>
			<g>
				<rect x="112.8" y="124.4" class="st18" width="24.4" height="2.2"/>
				<rect x="135" y="127.8" class="st18" width="2.2" height="2.2"/>
				<rect x="112.8" y="127.8" class="st18" width="2.2" height="2.2"/>
				<rect x="123.9" y="117.2" class="st18" width="2.2" height="2.2"/>
				<rect x="127.2" y="117.2" class="st18" width="2.2" height="2.2"/>
				<rect x="120.6" y="117.2" class="st18" width="2.2" height="2.2"/>
				<rect x="117.2" y="117.2" class="st18" width="2.2" height="2.2"/>
				<rect x="130.6" y="117.2" class="st18" width="2.2" height="2.2"/>
				<path class="st18" d="M145.3,157.4c-1,0.5-1.8,1-3.6,1l6.5-19.6c0.2-0.5-0.1-1.1-0.6-1.4l-6-2.7v-10.7c0-1.8-1.5-3.3-3.3-3.3
					h-1.7V115c0-0.6-0.5-1.1-1.1-1.1h-9.4v-4.4h-2.2v4.4h-9.4c-0.6,0-1.1,0.5-1.1,1.1v5.6h-1.7c-1.8,0-3.3,1.5-3.3,3.3v10.7l-6,2.7
					c-0.5,0.2-0.8,0.8-0.6,1.4l6.5,19.6c-1.8,0-2.6-0.5-3.6-1c-1.1-0.6-2.3-1.2-4.7-1.2v2.2c1.8,0,2.7,0.5,3.6,1
					c1.1,0.6,2.3,1.2,4.7,1.2c0.6,0,1.2,0,1.6-0.1c1.4-0.2,2.3-0.7,3.1-1.1c1-0.5,1.8-1,3.6-1c1.8,0,2.7,0.5,3.6,1
					c1.1,0.6,2.3,1.2,4.7,1.2c2.4,0,3.6-0.7,4.7-1.2c1-0.5,1.8-1,3.6-1c1.8,0,2.7,0.5,3.6,1c0.8,0.4,1.7,0.9,3.1,1.1
					c0.5,0.1,1,0.1,1.6,0.1c2.4,0,3.6-0.7,4.7-1.2c1-0.5,1.8-1,3.6-1v-2.2C147.6,156.1,146.4,156.8,145.3,157.4z M145.9,138.9
					l-0.8,2.4l-18.9-8.7v-2.6L145.9,138.9z M115.6,116.1h18.9v4.4h-18.9V116.1z M110.6,123.9c0-0.6,0.5-1.1,1.1-1.1h2.8h21.1h2.8
					c0.6,0,1.1,0.5,1.1,1.1v9.7l-14-6.3c-0.3-0.1-0.6-0.1-0.9,0l-14,6.3L110.6,123.9L110.6,123.9z M104.1,138.9l19.7-8.9v2.6
					l-18.9,8.7L104.1,138.9z M139.5,158c-0.5-0.2-1-0.4-1.5-0.7c-1.1-0.6-2.3-1.2-4.7-1.2c-2.4,0-3.6,0.7-4.7,1.2
					c-1,0.5-1.8,1-3.6,1c-1.8,0-2.7-0.5-3.6-1c-1.1-0.6-2.3-1.2-4.7-1.2c-2.4,0-3.6,0.7-4.7,1.2c-0.5,0.3-0.9,0.5-1.5,0.7l-4.9-14.6
					l18.2-8.4v13.3h2.2v-13.3l18.2,8.4L139.5,158z"/>
			</g>
		</g>
	</g>
</g>
<rect x="200" y="100" class="st0" width="50" height="70"/>
<g>
	<path class="st18" d="M212,131.6c-1.6,0-2.9,1.3-2.9,2.9s1.3,2.9,2.9,2.9c1.6,0,2.9-1.3,2.9-2.9S213.6,131.6,212,131.6z M212,135.8
		c-0.7,0-1.3-0.6-1.3-1.3s0.6-1.3,1.3-1.3c0.7,0,1.3,0.6,1.3,1.3S212.7,135.8,212,135.8z"/>
	<path class="st18" d="M250,137.4c0-1.3-0.5-2.4-1.3-3.3c0.1-1-0.1-1.9-0.5-2.8c-0.2-0.4-0.7-0.6-1.1-0.4c-0.4,0.2-0.6,0.7-0.4,1.1
		c0.1,0.3,0.2,0.6,0.3,0.9c-0.6-0.3-1.3-0.4-2-0.4c0,0-0.1,0-0.1,0c-0.1,0-0.2,0-0.3,0c-0.2,0-0.4,0-0.6,0.1
		c-1.6-3.7-4.3-6.7-7.9-8.8c0.3-1,0.5-2.2,0.5-3.3c0-5.8-4.7-10.4-10.4-10.4c-5.8,0-10.4,4.7-10.4,10.4c0,0.8,0.1,1.6,0.3,2.3
		c-0.7,0.2-1.4,0.5-1.9,0.7c-3.7-1.5-6-2-8.2-1.7c-0.5,0.1-0.9,0.4-1,0.9c-0.1,0.5,0.2,1,0.6,1.2c1.1,0.5,1.6,1.9,2.1,3.3
		c0.1,0.4,0.3,0.7,0.4,1.1c-2.2,2.3-2.6,4.1-3,6.8h-1.1c-2.6,0-4.1,1.9-4.1,5.1v3c0,3.3,1.5,5.3,4.1,5.3h0.5c0.6,1.5,1.5,3,2.7,4.2
		l-1.2,2.9c-0.4,1-0.3,2.2,0.3,3.2c0.6,0.9,1.7,1.5,2.8,1.5h5.6c0.7,0,1.3-0.4,1.6-1.1l0.3-0.8c2.7,0.8,5.6,1.2,8.8,1.2
		c2.6,0,5-0.3,7.2-0.9l0,0c0.3,0.9,1.1,1.6,2.1,1.6h5c1.2,0,2.3-0.6,3-1.5c0.7-1,0.9-2.2,0.5-3.3l-1-2.8c2.2-2.7,3.5-6.1,3.5-10
		c0,0,0-0.1,0-0.1C248.2,142,250,139.9,250,137.4z M244.9,138.2l-0.1,0c0,0-0.1,0-0.2,0c-1.1,0-2.1-0.9-2.1-2.1c0-0.1,0-0.3,0-0.4
		c0,0,0-0.1,0-0.1c0-0.1,0.1-0.2,0.1-0.3c0,0,0-0.1,0-0.1c0.1-0.2,0.2-0.4,0.4-0.6c0,0,0.1-0.1,0.1-0.1c0.1-0.1,0.1-0.1,0.2-0.1
		c0,0,0.1-0.1,0.1-0.1c0,0,0.1-0.1,0.2-0.1c0.1,0,0.1-0.1,0.2-0.1l0,0c0.2-0.1,0.5-0.2,0.8-0.2c1.1,0,2.1,0.9,2.1,2.1
		C246.7,137.2,245.9,138.1,244.9,138.2z M226.2,111.6c4.8,0,8.8,3.9,8.8,8.8c0,1-0.2,2.1-0.5,3l-0.1,0.3c-0.4,1-1,1.9-1.7,2.7
		c-0.1,0-0.2-0.1-0.3-0.1c-0.2-0.1-0.5-0.2-0.7-0.3c-0.2-0.1-0.4-0.2-0.6-0.2c-0.2-0.1-0.5-0.1-0.7-0.2c-0.4-0.1-0.9-0.2-1.3-0.3
		c-0.2,0-0.4-0.1-0.6-0.1c-0.3,0-0.5,0-0.8,0c-0.2,0-0.4,0-0.6,0c-0.3,0-0.5,0-0.7,0c-0.2,0-0.5,0-0.7,0.1c-0.2,0-0.4,0.1-0.7,0.1
		c-0.3,0.1-0.6,0.1-1,0.2c-0.1,0-0.3,0.1-0.4,0.1c-0.5,0.1-0.9,0.3-1.4,0.5c-0.1,0-0.2,0.1-0.3,0.1c-0.4,0.2-0.7,0.3-1.1,0.5
		c0,0-0.1,0-0.1,0.1c-0.3-0.2-0.5-0.5-0.8-0.8c0,0-0.1-0.1-0.1-0.1c-0.2-0.3-0.4-0.5-0.6-0.8c0,0,0,0,0-0.1c-0.4-0.6-0.7-1.3-1-2.1
		l-0.1-0.3c-0.2-0.8-0.4-1.6-0.4-2.5C217.5,115.6,221.4,111.6,226.2,111.6z M214.9,158.4h-5.6c-0.6,0-1.1-0.3-1.4-0.8
		c-0.3-0.5-0.4-1.1-0.2-1.6l0.9-2.2c1.8,1.6,4.1,2.9,6.6,3.9L214.9,158.4z M241.5,157.5c-0.4,0.5-1,0.8-1.6,0.8h-5
		c-0.2,0-0.5-0.2-0.5-0.4l0,0c2.6-1,4.9-2.4,6.7-4.1l0.7,1.9C242,156.3,241.9,157,241.5,157.5z M240.2,152.4
		C240.1,152.4,240.1,152.4,240.2,152.4c-0.4,0.4-0.7,0.7-1.1,1c-0.1,0.1-0.2,0.1-0.3,0.2c-0.3,0.2-0.6,0.4-0.9,0.6
		c-0.1,0.1-0.3,0.2-0.4,0.3c-0.4,0.2-0.8,0.5-1.2,0.7c-0.1,0.1-0.3,0.1-0.4,0.2c-0.3,0.2-0.6,0.3-0.9,0.4c-0.2,0.1-0.3,0.2-0.5,0.2
		c-0.4,0.2-0.8,0.3-1.2,0.4c-0.1,0-0.2,0.1-0.3,0.1l0,0c-2.2,0.7-4.7,1.1-7.5,1.1c-3.4,0-6.6-0.6-9.5-1.6c-0.2-0.1-0.3-0.1-0.5-0.2
		c-4.8-1.8-8.3-4.9-9.6-8.8l-0.2-0.6h-1.7c-2,0-2.4-1.9-2.4-3.6v-3c0-3.4,1.8-3.4,2.4-3.4h2.5l0.1-0.7c0.4-3.1,0.7-4.7,3-6.9
		l0.4-0.4l-0.3-0.5c-0.2-0.4-0.4-0.9-0.6-1.5c-0.4-1.1-0.8-2.3-1.7-3.2c1.6,0.1,3.5,0.7,6.2,1.8l0.3,0.1l0.3-0.1
		c0.5-0.2,1.3-0.5,2.1-0.8c0.2,0.4,0.4,0.8,0.6,1.2c0,0,0,0.1,0.1,0.1c0.2,0.3,0.4,0.7,0.6,1c0,0.1,0.1,0.1,0.1,0.2
		c0.2,0.3,0.5,0.6,0.7,0.8c0.1,0.1,0.1,0.1,0.2,0.2c0.1,0.1,0.1,0.1,0.2,0.2c-0.5,0.3-0.9,0.7-1.3,1.1c-0.3,0.3-0.3,0.9,0,1.2
		c0.3,0.3,0.9,0.3,1.2,0c0.5-0.5,1.1-1,1.7-1.4l0.1-0.1c0.3-0.2,0.5-0.3,0.8-0.5c0.1-0.1,0.2-0.1,0.3-0.2c0.2-0.1,0.4-0.2,0.6-0.3
		c0.1,0,0.2-0.1,0.3-0.1c0.3-0.1,0.6-0.2,0.9-0.3c0.1,0,0.1,0,0.2,0c0.3-0.1,0.6-0.2,0.9-0.2c0,0,0.1,0,0.1,0
		c2.2-0.4,4.4-0.2,6.5,0.6c0,0,0,0,0.1,0c1.4,0.6,2.7,1.4,3.8,2.5c0.2,0.2,0.4,0.2,0.6,0.2s0.4-0.1,0.6-0.2c0.3-0.3,0.3-0.9,0-1.2
		c-0.7-0.7-1.4-1.3-2.2-1.8c0.1-0.1,0.1-0.2,0.2-0.2c0.1-0.1,0.2-0.3,0.3-0.4c0.1-0.1,0.2-0.3,0.3-0.4c0.1-0.1,0.2-0.2,0.2-0.4
		c0.1-0.2,0.2-0.3,0.3-0.5c0,0,0-0.1,0.1-0.1c3.2,1.9,5.6,4.6,7,7.9c-0.2,0.1-0.3,0.3-0.5,0.4c0,0-0.1,0.1-0.1,0.1
		c-0.3,0.3-0.6,0.7-0.7,1.1c0,0,0,0,0,0.1c-0.1,0.2-0.1,0.4-0.2,0.6c0,0,0,0.1,0,0.1c0,0.2-0.1,0.5-0.1,0.7c0,0.2,0,0.5,0.1,0.7
		c0,0.1,0,0.2,0.1,0.2c0,0.2,0.1,0.3,0.1,0.4c0,0.1,0.1,0.2,0.1,0.3c0.1,0.1,0.1,0.2,0.2,0.4c0.1,0.1,0.1,0.2,0.2,0.2
		c0.1,0.1,0.2,0.2,0.3,0.3c0.1,0.1,0.1,0.1,0.2,0.2c0.1,0.1,0.2,0.2,0.3,0.2c0.1,0.1,0.2,0.1,0.3,0.2c0.1,0.1,0.2,0.1,0.3,0.2
		c0.1,0,0.2,0.1,0.3,0.1c0.1,0,0.3,0.1,0.4,0.1c0.1,0,0.2,0.1,0.3,0.1c0,0,0.1,0,0.1,0c0.1,0.8,0.1,1.7,0.1,2.5
		C244.2,146.4,242.7,149.8,240.2,152.4z M245.8,140.7c0-0.3-0.1-0.6-0.1-0.9c1.3-0.4,2.3-1.5,2.6-2.9c0,0.2,0.1,0.4,0.1,0.6
		C248.3,139,247.2,140.3,245.8,140.7z"/>
	<path class="st18" d="M221.9,125.6c0.2,0.1,0.3,0.2,0.5,0.2c0.2,0,0.5-0.1,0.7-0.3c0.3-0.4,0.2-0.9-0.1-1.2c-1.3-1-2.1-2.6-2.1-4.2
		c0-2.9,2.4-5.3,5.3-5.3c2.9,0,5.3,2.4,5.3,5.3c0,1.5-0.6,2.9-1.7,3.9c-0.3,0.3-0.4,0.8,0,1.2c0.3,0.3,0.8,0.4,1.2,0
		c1.4-1.3,2.3-3.2,2.3-5.1c0-3.9-3.1-7-7-7c-3.9,0-7,3.1-7,7C219.2,122.2,220.2,124.2,221.9,125.6z"/>
	<path class="st18" d="M226.6,154.2c-3.8,0.3-6.9-0.2-10.2-1.6c-0.4-0.2-0.9,0-1.1,0.4c-0.2,0.4,0,0.9,0.4,1.1
		c2.8,1.3,5.7,1.9,8.8,1.9c0.7,0,1.5,0,2.2-0.1c0.5,0,0.8-0.4,0.8-0.9C227.4,154.5,227,154.1,226.6,154.2z"/>
</g>
<rect x="300" y="100" class="st0" width="50" height="70"/>
<g>
	<g>
		<path class="st18" d="M332.1,144.3v-0.9c0.2-0.2,0.5-0.4,0.7-0.6c1.8-2,3-4.5,3.3-7.2c1.6-0.2,3.1-1.1,4.1-2.4
			c1.4-1.9,1.5-4.7,0.4-8.2c-0.1-0.2-0.2-0.4-0.4-0.5l-0.5-0.4c0.1-3.2-1-6.2-3.1-8.6c-2.5-2.9-6.5-4.3-11.6-4.3
			c-5.2,0-9.1,1.5-11.6,4.3c-2.1,2.4-3.1,5.5-3.1,8.6l-0.5,0.4c-0.2,0.1-0.3,0.3-0.4,0.5c-1.1,3.5-1,6.3,0.4,8.2
			c1,1.3,2.5,2.2,4.1,2.5c0.3,2.7,1.5,5.2,3.3,7.2c0.2,0.2,0.5,0.4,0.7,0.6v0.9c-3.6,0.7-18.1,4.1-17.8,13.7c0,0.5,0.4,0.9,0.9,0.9
			h48.1c0.5,0,0.9-0.4,0.9-0.9C350.2,148.4,335.8,145,332.1,144.3z M313.3,133.4c-0.8-0.3-1.5-0.8-2-1.5l0,0c-0.9-1.4-1-3.5-0.2-6.2
			l0.7-0.5c0.3-0.2,0.5-0.5,0.4-0.9c-0.2-2.8,0.8-5.6,2.6-7.8c2.1-2.4,5.6-3.6,10.2-3.7c4.6,0,8,1.2,10.2,3.7c1.8,2.2,2.7,5,2.6,7.8
			c0,0.3,0.1,0.7,0.4,0.9l0.7,0.5c0.8,2.8,0.8,4.9-0.2,6.2c-0.5,0.7-1.2,1.2-2,1.5c1.1-1.3,1.7-3,1.5-4.7c-0.2-1-0.7-2-1.5-2.6
			c-0.4-9.5-7-10.5-9.9-10.5c-0.6,0-1.2,0-1.8,0.1c-0.6-0.1-1.2-0.1-1.8-0.1c-2.8,0-9.5,1-9.9,10.5c-0.8,0.7-1.4,1.6-1.5,2.6
			C311.6,130.4,312.1,132.1,313.3,133.4z M334.8,125.7c-4,0.2-7.9-0.8-11.3-2.8c-0.4-0.3-0.9-0.2-1.2,0.1c-1.9,2-5.3,2.5-7,2.6
			c0.5-6.7,4.6-8.1,8-8.1c0.5,0,1.1,0,1.6,0.1c0.1,0,0.3,0,0.4,0c0.5-0.1,1.1-0.1,1.6-0.1C330.2,117.4,334.3,118.9,334.8,125.7
			L334.8,125.7z M315.6,133.6L315.6,133.6c0-0.2,0-0.4-0.2-0.6c-1.3-1.5-1.9-2.8-1.7-4c0.1-0.6,0.4-1.2,0.9-1.6
			c1.2,0,5.7-0.2,8.5-2.7c3.2,1.8,6.8,2.8,10.5,2.8c0.6,0,1.3,0,1.9-0.1c0.5,0.4,0.8,0.9,0.9,1.6c0.2,1.1-0.4,2.5-1.7,4
			c-0.2,0.2-0.2,0.4-0.2,0.6c0,0,0,0.2,0,0.5l-5.5,3c-1.1-1-2.8-1-3.9,0.1c-1,1.1-1,2.8,0.1,3.9c1.1,1,2.8,1,3.9-0.1
			c0.5-0.5,0.7-1.2,0.7-1.9c0-0.1,0-0.2,0-0.3l4.3-2.3c-0.4,1.9-1.2,3.6-2.5,5c-1.7,1.6-3.9,2.5-6.3,2.3h-0.5
			c-2.3,0.1-4.6-0.7-6.3-2.3C315.5,138.5,315.6,133.6,315.6,133.6z M327.8,139c0,0.5-0.4,0.8-0.8,0.8s-0.8-0.4-0.8-0.8
			s0.4-0.8,0.8-0.8S327.8,138.6,327.8,139z M324,157h-22.1c0.7-7.1,12.3-10.1,15.9-10.8v1.7c0,2.1,2.6,3.8,6.2,4.1V157z
			 M319.7,147.9L319.7,147.9v-3.3c1.6,0.7,3.3,1.1,5,1.1h0.5c1.7,0,3.5-0.3,5-1.1v3.3c0,0.9-2.1,2.2-5.3,2.2
			S319.7,148.8,319.7,147.9z M325.9,157v-5.1c3.6-0.2,6.2-1.9,6.2-4.1v-1.7c3.6,0.8,15.1,3.7,15.9,10.8H325.9L325.9,157z"/>
	</g>
</g>
<rect x="440" class="st0" width="60" height="60"/>
<g>
	<g>
		<g>
			<path class="st18" d="M496,27.1c-2.5-2.6-5.8-4-9.4-4.2c0-0.2,0-0.5,0-1c0-1.7,1.3-7,2.1-9.9l0.8-3h-10.3l-0.7,1.1
				c-0.3,0.4-6.7,10.9-6.7,26.8c0,7.8,6.3,14.1,14.1,14.1S500,44.7,500,36.9C500,33.2,498.6,29.7,496,27.1z M485.9,46.3
				c-5.2,0-9.4-4.2-9.4-9.4c0-11.6,3.8-20.3,5.4-23.2h1.4c-0.7,2.6-1.5,6.3-1.5,8.2c0,1.5,0.1,2.7,0.6,3.7c0.5,0.9,1.5,1.9,3.5,2
				l0.1,0c5.1,0.1,9.2,4.3,9.2,9.4C495.3,42.1,491.1,46.3,485.9,46.3z"/>
		</g>
	</g>
	<g>
		<g>
			<path class="st18" d="M464.1,27.1c-2.5-2.6-5.8-4-9.4-4.2c0-0.2,0-0.5,0-1c0-1.7,1.3-7,2.1-9.9l0.8-3h-10.3l-0.7,1.1
				c-0.3,0.4-6.7,10.9-6.7,26.8c0,7.8,6.3,14.1,14.1,14.1s14.1-6.3,14.1-14.1C468.1,33.2,466.7,29.7,464.1,27.1z M454.1,46.3
				c-5.2,0-9.4-4.2-9.4-9.4c0-11.6,3.8-20.3,5.4-23.2h1.4c-0.7,2.6-1.5,6.3-1.5,8.2c0,1.5,0.1,2.7,0.6,3.7c0.5,0.9,1.5,1.9,3.5,2
				l0.1,0c5.1,0.1,9.2,4.3,9.2,9.4C463.4,42.1,459.2,46.3,454.1,46.3z"/>
		</g>
	</g>
</g>
<rect x="126" class="st0" width="40" height="40"/>
<g>
	<path d="M146,21.3c3.3,0,5.9-2.6,5.9-5.9s-2.6-5.9-5.9-5.9s-5.9,2.6-5.9,5.9S142.7,21.3,146,21.3z M146,11.1c2.4,0,4.3,2,4.3,4.3
		s-2,4.3-4.3,4.3s-4.3-2-4.3-4.3S143.6,11.1,146,11.1z"/>
	<path d="M135.8,30.5h20.4c0.4,0,0.8-0.3,0.8-0.8c0-4.1-3.3-7.4-7.4-7.4h-7.2c-4.1,0-7.4,3.3-7.4,7.4
		C135,30.1,135.3,30.5,135.8,30.5z M142.4,23.9h7.2c3,0,5.4,2.2,5.8,5.1h-18.8C137,26.1,139.4,23.9,142.4,23.9z"/>
</g>
<rect x="250" class="st0" width="20" height="20"/>
<g>
	<path class="st5" d="M252.5,4.4h15v11.3h-15V4.4z"/>
	<path class="st19" d="M252.5,8.1h15v7.5h-15V8.1z"/>
	<path class="st20" d="M252.5,11.9h15v3.8h-15V11.9z"/>
</g>
<rect x="290" class="st0" width="20" height="20"/>
<g>
	<path class="st21" d="M292.5,4.4h15v11.3h-15V4.4z"/>
	<g>
		<path class="st22" d="M293.9,15.3c0.1,0.1,0.1,0.2,0.3,0.2c0.3,0,0.3-0.2,0.3-0.3c0-0.1-0.5-0.3-0.5-0.5c0-0.2,0.1-0.3,0.2-0.3
			s0.2,0.1,0.2,0.1c0,0.1,0,0.1-0.1,0.1s0,0,0-0.1c-0.1,0-0.1,0-0.1,0.1c0,0,0.2,0.1,0.3,0c0,0.1,0,0.1-0.1,0.3
			c0.1-0.1,0.1-0.1,0.3,0c-0.1-0.1,0-0.3,0-0.4c0-0.1,0-0.1-0.1-0.2c-0.1-0.1-0.3-0.1-0.4,0c-0.2,0.1-0.2,0.3-0.1,0.4l0.5,0.5
			c0,0.1,0,0.2-0.1,0.2c-0.2,0-0.3-0.3-0.3-0.4c0,0.1-0.1,0.4-0.3,0.4c-0.2,0-0.2-0.2-0.2-0.2l0.5-0.5c0-0.1,0-0.3-0.1-0.4
			c-0.1-0.1-0.3,0-0.4,0c0,0-0.1,0.1-0.1,0.2s0.1,0.3,0,0.4c0.1,0,0.1,0,0.3,0.1c-0.2-0.2-0.1-0.2-0.1-0.3c0.1,0,0.3,0,0.3,0
			s0-0.1-0.1-0.1c-0.1,0,0,0.1,0,0.1s-0.1,0-0.1-0.1s0.1-0.1,0.2-0.1s0.3,0.1,0.2,0.3s-0.5,0.4-0.5,0.6s0,0.3,0.4,0.3
			c0.2,0,0.2-0.1,0.3-0.2L293.9,15.3z M293.9,12.4c0.1-0.1,0.1-0.3,0.4-0.3c0.3,0,0.4,0.2,0.4,0.3c0,0.1-0.7,1.3-0.7,1.5
			c0,0.2,0.1,0.3,0.2,0.3c0.1,0,0.2-0.1,0.2-0.1s-0.1-0.1-0.1-0.1s0,0,0,0.1c-0.1,0-0.1,0-0.1-0.1s0.2-0.1,0.3,0
			c0-0.1,0-0.1-0.1-0.3c0.1,0.1,0.1,0.1,0.2,0c-0.1,0.1,0,0.3,0,0.4c0,0.1,0,0.1-0.1,0.1c-0.1,0.1-0.3,0.1-0.4,0
			c-0.2-0.1-0.2-0.3-0.1-0.4l0.6-1.4c0-0.1-0.1-0.2-0.3-0.3c-0.2,0-0.3,0.2-0.3,0.3l0.3,0c0,0,0,0,0,0.1c-0.1,0-0.3,0-0.3,0l0,0.1
			h0.1l0,0c0,0-0.1,0-0.1,0c0,0,0,0.1,0,0.1h-0.1c0,0,0-0.1,0-0.1c0,0-0.1,0-0.1,0l0-0.1h0.1l0-0.1c0,0-0.1,0-0.3,0v-0.1L293.9,12.4
			c-0.1,0-0.2-0.3-0.4-0.2c-0.2,0-0.3,0.2-0.3,0.3l0.6,1.4c0,0.1,0,0.3-0.1,0.4c-0.1,0-0.3,0-0.4,0c0,0-0.1-0.1-0.1-0.2
			s0.1-0.3,0-0.4c0.1,0,0.1,0,0.3,0c-0.1,0.2-0.1,0.2-0.1,0.3c0.1,0,0.3,0,0.3,0s0,0.1-0.1,0.1c0,0,0-0.1,0-0.1s-0.1,0-0.1,0.1
			s0.1,0.1,0.2,0.1s0.3,0,0.2-0.3s-0.7-1.3-0.7-1.5s0.1-0.3,0.4-0.3c0.2,0,0.3,0.2,0.4,0.3L293.9,12.4z"/>
		<path class="st22" d="M293.9,11.9c0.1,0.1,0.1,0.3,0.4,0.3c0.3,0,0.4-0.2,0.4-0.3c0-0.1-0.7-1.3-0.7-1.5c0-0.2,0.1-0.3,0.2-0.3
			c0.1,0,0.2,0.1,0.2,0.1s-0.1,0.1-0.1,0.1s0,0,0-0.1c-0.1,0-0.1,0-0.1,0.1s0.2,0.1,0.3,0c0,0.1,0,0.1-0.1,0.3
			c0.1-0.1,0.1-0.1,0.2,0c-0.1-0.1,0-0.3,0-0.4c0-0.1,0-0.1-0.1-0.1c-0.1-0.1-0.3-0.1-0.4,0c-0.2,0.1-0.2,0.3-0.1,0.4l0.6,1.3
			c0,0.1-0.1,0.2-0.3,0.3c-0.2,0-0.3-0.2-0.3-0.3l0.3,0c0,0,0,0,0-0.1c-0.1,0-0.3,0-0.3,0l0-0.1h0.1l0-0.1c0,0-0.1,0-0.1,0
			c0,0,0-0.1,0-0.1h0l0,0c0,0,0,0.1,0,0.1c0,0-0.1,0-0.1,0l0,0.1h0.1l0,0.1c0,0-0.1,0-0.3,0v0.1L293.9,11.9c-0.1,0-0.2,0.2-0.4,0.2
			c-0.2,0-0.3-0.2-0.3-0.2l0.6-1.4c0-0.1,0-0.3-0.1-0.4c-0.1,0-0.3,0-0.4,0c0,0-0.1,0.1-0.1,0.2s0.1,0.3,0,0.4c0.1,0,0.1,0,0.3,0
			c-0.1-0.2-0.1-0.2-0.1-0.3c0.1,0,0.3,0,0.3,0s0-0.1-0.1-0.1c0,0,0,0.1,0,0.1s-0.1,0-0.1-0.1s0.1-0.1,0.2-0.1s0.3,0.1,0.2,0.3
			c0,0.2-0.7,1.3-0.7,1.5s0.1,0.3,0.4,0.3C293.8,12.2,293.9,12,293.9,11.9L293.9,11.9z M293.9,8.1c0.1-0.1,0.1-0.3,0.4-0.3
			c0.3,0,0.4,0.2,0.4,0.3c0,0.1-0.7,1.3-0.7,1.5c0,0.2,0.1,0.3,0.2,0.3c0.1,0,0.2-0.1,0.2-0.1s-0.1-0.1-0.1-0.1s0,0,0,0.1
			c-0.1,0-0.1-0.1-0.1-0.1s0.2-0.1,0.3,0c0-0.1,0-0.1-0.1-0.3c0.1,0.1,0.1,0.1,0.2,0c-0.1,0.1,0,0.3,0,0.4c0,0,0,0.1-0.1,0.1
			c-0.1,0.1-0.3,0.1-0.4,0c-0.2-0.1-0.2-0.3-0.1-0.4l0.6-1.3c0-0.1-0.1-0.2-0.3-0.3c-0.2,0-0.3,0.2-0.3,0.3l0.3,0c0,0,0,0,0,0.1
			c-0.1,0-0.3,0-0.3,0l0,0.1h0.1l0,0.1c0,0-0.1,0-0.1,0c0,0,0,0.1,0,0.1h0l0,0c0,0,0-0.1,0-0.2c0,0-0.1,0-0.1,0l0-0.1h0.1l0-0.1
			c0,0-0.1,0-0.3,0V8.2L293.9,8.1c-0.1,0-0.2-0.2-0.4-0.2c-0.2,0-0.3,0.2-0.3,0.3l0.6,1.4c0,0.1,0,0.3-0.1,0.4c-0.1,0-0.3,0-0.4,0
			c0,0-0.1-0.1-0.1-0.2s0.1-0.3,0-0.4c0.1,0,0.1,0,0.3,0c-0.1,0.2-0.1,0.2-0.1,0.3c0.1,0,0.3,0,0.3,0s0,0.1-0.1,0.1c0,0,0-0.1,0-0.1
			s-0.1,0-0.1,0.1s0.1,0.1,0.2,0.1s0.3-0.1,0.2-0.3c0-0.2-0.7-1.3-0.7-1.5s0.1-0.3,0.4-0.3c0.2,0,0.3,0.2,0.4,0.3L293.9,8.1z"/>
		<path class="st22" d="M293.9,7.6c0.1,0.1,0.1,0.3,0.4,0.3c0.3,0,0.4-0.2,0.4-0.3c0-0.1-0.7-1.3-0.7-1.5c0-0.2,0.1-0.3,0.2-0.3
			c0.1,0,0.2,0.1,0.2,0.1S294.4,6,294.3,6s0,0,0-0.1c-0.1,0-0.1,0-0.1,0.1s0.2,0.1,0.3,0c0,0.1,0,0.1-0.1,0.3c0.1-0.1,0.1-0.1,0.2,0
			c-0.1-0.1,0-0.3,0-0.4c0,0,0-0.1-0.1-0.1c-0.1-0.1-0.3-0.1-0.4,0c-0.2,0.1-0.2,0.3-0.1,0.4l0.6,1.3c0,0.1-0.1,0.2-0.3,0.3
			c-0.2,0-0.3-0.2-0.3-0.3l0.3,0c0,0,0,0,0-0.1l-0.3,0l0-0.1h0.1l0-0.1h-0.1c0,0,0-0.1,0-0.1l0,0h0c0,0,0,0.1,0,0.1h-0.1l0,0h0.1
			l0,0.1c0,0-0.1,0-0.3,0v0.1l0.3,0c0,0.1-0.1,0.3-0.3,0.3c-0.2,0-0.3-0.2-0.3-0.3l0.6-1.4c0-0.1,0-0.3-0.1-0.4c-0.1,0-0.3,0-0.4,0
			c0,0-0.1,0.1-0.1,0.2s0.1,0.3,0,0.4c0.1,0,0.1,0,0.3,0c-0.1-0.2-0.1-0.2-0.1-0.3c0.1,0,0.3,0,0.3,0s0-0.1-0.1-0.1c0,0,0,0.1,0,0.1
			s-0.1,0-0.1-0.1s0.1-0.1,0.2-0.1s0.2,0,0.2,0.3c0,0.2-0.7,1.3-0.7,1.5s0.1,0.3,0.4,0.3C293.7,7.8,293.8,7.6,293.9,7.6L293.9,7.6z"
			/>
		<path class="st22" d="M293.9,4.7c0.1-0.1,0.1-0.2,0.3-0.2c0.3,0,0.3,0.2,0.3,0.3c0,0.1-0.5,0.3-0.5,0.5c0,0.2,0.1,0.3,0.2,0.3
			s0.2-0.1,0.2-0.1c0-0.1,0-0.1-0.1-0.1s0,0,0,0.1c-0.1,0-0.1,0-0.1-0.1c0,0,0.2-0.1,0.3,0c0-0.1,0-0.1-0.1-0.3
			c0.1,0.1,0.1,0.1,0.3,0c-0.1,0.1,0,0.3,0,0.4c0,0.1,0,0.1-0.1,0.2c-0.1,0.1-0.3,0.1-0.4,0c-0.2-0.1-0.2-0.3-0.1-0.4l0.5-0.5
			c0-0.1,0-0.2-0.2-0.2c-0.2,0-0.3,0.3-0.3,0.4c0-0.1-0.1-0.4-0.3-0.4c-0.2,0-0.2,0.2-0.2,0.2l0.5,0.5c0,0.1,0,0.3-0.1,0.4
			c-0.1,0.1-0.3,0-0.4,0c-0.1,0-0.1-0.1-0.1-0.2s0.1-0.3,0-0.4c0.1,0,0.1,0,0.2-0.1c-0.2,0.2-0.1,0.2-0.1,0.3c0.1,0,0.3,0,0.3,0
			s0,0.1-0.1,0.1c-0.1,0,0-0.1,0-0.1s-0.1,0-0.1,0.1s0.1,0.1,0.2,0.1s0.3,0,0.2-0.3s-0.5-0.4-0.5-0.6s0-0.3,0.4-0.3
			C293.8,4.4,293.8,4.6,293.9,4.7L293.9,4.7z"/>
	</g>
	<g transform="matrix(1.1 0 0 1.1 -194.7 8.3)">
		<path class="st22" d="M450.7-0.9L450.7-0.9c1.1,0,2,0.8,2,1.9v0c0,1-0.9,1.9-2,1.9l0,0c-1.1,0-2-0.8-2-1.9v0
			C448.7-0.1,449.6-0.9,450.7-0.9z"/>
		<path class="st22" d="M450.6-2.1c0,0-0.1,0.6-0.1,0.8c0,0.3,0.4,0.3,0.3,0L450.6-2.1L450.6-2.1z M450.8,4c0,0,0.2-0.6,0.2-0.8
			c0.1-0.3-0.4-0.3-0.4,0L450.8,4z M447.6,0.9c0,0,0.7,0.1,0.8,0.2c0.3,0.1,0.4-0.4,0-0.3L447.6,0.9L447.6,0.9z M454,1
			c0,0-0.7-0.1-0.8-0.2c-0.3,0-0.3,0.4,0,0.3L454,1L454,1z M448.3-1.1c0,0,0.4,0.5,0.5,0.6c0.2,0.2,0.5-0.1,0.2-0.3L448.3-1.1z
			 M453.2,3c0,0-0.5-0.5-0.6-0.6c-0.2-0.2-0.5,0.1-0.2,0.3L453.2,3L453.2,3z M449.3-1.7c0,0,0.2,0.6,0.2,0.8
			c0.1,0.3,0.5,0.1,0.3-0.2L449.3-1.7L449.3-1.7z M452.2,3.7c0,0-0.1-0.6-0.2-0.8c-0.1-0.3-0.5-0.1-0.3,0.1L452.2,3.7L452.2,3.7z
			 M452.9-1.3c0,0-0.5,0.4-0.7,0.5c-0.3,0.2,0.1,0.5,0.3,0.2L452.9-1.3L452.9-1.3z M448.6,3.2c0,0,0.6-0.4,0.7-0.4
			c0.3-0.2-0.1-0.5-0.2-0.2L448.6,3.2L448.6,3.2z M447.8-0.1c0,0,0.6,0.3,0.7,0.4c0.3,0.2,0.5-0.2,0.1-0.3L447.8-0.1L447.8-0.1z
			 M453.7,2.2c0,0-0.5-0.4-0.7-0.5c-0.3-0.2-0.5,0.2-0.2,0.3L453.7,2.2L453.7,2.2z M451.8-1.9c0,0-0.3,0.6-0.4,0.7
			c-0.1,0.3,0.3,0.4,0.4,0.1L451.8-1.9L451.8-1.9z M449.6,3.8c0,0,0.4-0.5,0.5-0.6c0.2-0.3-0.2-0.4-0.3-0.1L449.6,3.8L449.6,3.8z
			 M447.8,2.2c0,0,0.7-0.1,0.8-0.2c0.3-0.1,0.1-0.5-0.1-0.3L447.8,2.2z M453.7-0.2c0,0-0.7,0.1-0.8,0.1c-0.3,0.1-0.2,0.5,0.1,0.3
			L453.7-0.2L453.7-0.2z"/>
		<path class="st22" d="M451.3-2c0,0-0.2,0.6-0.3,0.7c-0.1,0.3,0.4,0.4,0.4,0.1L451.3-2L451.3-2z M450.2,4c0,0,0.3-0.6,0.4-0.7
			c0.1-0.3-0.3-0.4-0.3-0.1L450.2,4z M449.9-2c0,0,0,0.6,0,0.8c0,0.3,0.5,0.2,0.3-0.1C450.3-1.3,449.9-2,449.9-2z M451.5,3.9
			c0,0,0-0.6,0-0.8c0-0.3-0.5-0.2-0.4,0.1L451.5,3.9L451.5,3.9z M448.8-1.4c0,0,0.3,0.6,0.4,0.7c0.2,0.3,0.5,0,0.3-0.2L448.8-1.4
			L448.8-1.4z M452.7,3.4c0,0-0.3-0.6-0.3-0.7c-0.1-0.3-0.5-0.1-0.3,0.2L452.7,3.4z M448-0.7c0,0,0.5,0.4,0.6,0.5
			c0.3,0.2,0.5-0.2,0.2-0.3L448-0.7z M453.5,2.6c0,0-0.5-0.5-0.6-0.6c-0.2-0.2-0.5,0.1-0.2,0.3L453.5,2.6z M447.6,0.3
			c0,0,0.6,0.3,0.8,0.3c0.3,0.1,0.4-0.3,0.1-0.3L447.6,0.3L447.6,0.3z M453.9,1.7c0,0-0.6-0.3-0.7-0.4c-0.3-0.1-0.4,0.3-0.1,0.3
			L453.9,1.7z M447.6,1.5c0,0,0.7,0,0.8,0c0.3,0,0.2-0.4-0.1-0.3L447.6,1.5L447.6,1.5z M453.9,0.5c0,0-0.7-0.1-0.8-0.1
			c-0.3,0-0.3,0.4,0,0.3L453.9,0.5L453.9,0.5z M448.2,2.8c0,0,0.6-0.3,0.8-0.3c0.3-0.1,0-0.5-0.2-0.3L448.2,2.8z M453.4-0.8
			c0,0-0.6,0.2-0.8,0.3c-0.3,0.1-0.1,0.5,0.2,0.3L453.4-0.8L453.4-0.8z M449.1,3.6c0,0,0.4-0.5,0.6-0.6c0.2-0.2-0.2-0.5-0.3-0.2
			L449.1,3.6L449.1,3.6z M452.4-1.6c0,0-0.5,0.4-0.6,0.5c-0.2,0.2,0.2,0.5,0.3,0.2L452.4-1.6L452.4-1.6z"/>
		<g transform="matrix(2.2 0 0 2.1 -405 -272.6)">
			<path class="st22" d="M387.7,131c0,0.1,0,0.4,0.4,0.7c0.3,0.3,0.9,0.4,0.9,0.4s0,0,0,0c0,0-0.2,0-0.3-0.1c-0.1,0-0.2-0.1-0.2-0.1
				c0,0,0,0-0.1,0c0,0-0.2-0.1-0.2-0.2c-0.1,0-0.3-0.3-0.3-0.4s-0.1-0.2-0.1-0.2s-0.1,0.1-0.1,0.1s-0.1-0.1-0.1-0.3s-0.1-0.3,0-0.3
				s0,0.1,0.1,0.2c0,0.1,0.1,0.2,0.1,0.2s0-0.1-0.1-0.2s0-0.3,0-0.4c0,0,0-0.1,0-0.1c0,0,0,0.1,0,0.2s0.1,0.3,0.1,0.3c0,0,0,0,0-0.2
				s0-0.2,0-0.2C387.6,130.7,387.6,130.9,387.7,131L387.7,131z M387.4,131.3c-0.1-0.1-0.2-0.3-0.2-0.3
				C387.2,131,387.4,131.3,387.4,131.3c0,0.1,0,0.2,0,0.2c0,0-0.2-0.3-0.2-0.2s0.2,0.2,0.2,0.3s-0.1-0.1-0.1-0.1
				c0,0,0.1,0.1,0.1,0.1s-0.1-0.1-0.1-0.1s0.1,0.1,0.1,0.1s-0.1-0.1,0,0s0.1,0.1,0.1,0.1s0,0,0,0s0.1,0,0.1,0.1c0,0,0.2,0.2,0.3,0.3
				s0.4,0.2,0.5,0.2s0,0,0-0.1s-0.3-0.1-0.4-0.2c-0.1-0.1-0.3-0.3-0.3-0.3c0,0-0.1,0-0.1,0s0.1,0,0.1,0c0,0-0.1,0-0.1-0.1
				s0.1,0,0.1,0l-0.1-0.1c0,0,0.1,0,0.1,0c0,0-0.1-0.1-0.1-0.1c0,0,0.1,0,0.1,0S387.5,131.3,387.4,131.3l0.2,0.1c0,0,0-0.2,0-0.2
				s0.1,0,0.1,0c0,0,0-0.1-0.1-0.1L387.4,131.3z M388.5,132.4C388.5,132.4,388.4,132.4,388.5,132.4c0,0,0.1-0.1,0.1-0.1
				s0.1,0,0.1-0.1c0,0,0,0,0,0c0,0-0.1,0-0.1,0C388.6,132.4,388.5,132.4,388.5,132.4L388.5,132.4z M388.8,132.3
				C388.8,132.2,388.8,132.2,388.8,132.3c0.1-0.1,0.1-0.2,0.2-0.2c0,0,0.6-0.2,0.7-0.4c0.2-0.1,0.7-0.5,0.8-0.7s0.1-0.3,0.1-0.3
				c0,0,0,0,0,0.1c0,0,0,0.2,0,0.2s0.2-0.1,0.3-0.3s0.1-0.4,0.2-0.4c0,0-0.1,0.3-0.1,0.4s-0.1,0.2-0.1,0.2s0.2-0.1,0.3-0.2
				s0.1-0.2,0.1-0.2s-0.1,0.3-0.2,0.4s-0.2,0.2-0.2,0.2c0,0,0.1,0,0.3-0.1s0.1-0.2,0.2-0.2c0,0,0,0.2-0.2,0.3s-0.3,0.1-0.3,0.1
				s0.4-0.1,0.4-0.1c0,0-0.5,0.2-0.5,0.2c0,0,0.1,0,0.2,0c0.1,0,0.2-0.1,0.3-0.1c0,0-0.1,0.1-0.2,0.1c-0.2,0-0.2,0.1-0.2,0.1
				c0,0,0.3,0,0.3,0s-0.3,0.1-0.3,0.1c0,0,0.3-0.1,0.3,0c0,0-0.4,0.1-0.4,0.2c0,0,0.4-0.1,0.4-0.1s-0.6,0.2-0.6,0.2
				c0,0,0.5-0.1,0.5-0.1s-0.3,0.1-0.3,0.1s0.2,0,0.2,0s-0.6,0.2-0.6,0.2s0.3-0.1,0.3,0s-0.7,0.3-0.7,0.2c0,0,0.4-0.2,0.4-0.2
				c0,0-0.2,0-0.2,0s0.1-0.1,0.1-0.1s-0.1,0-0.1,0c0,0,0.2-0.1,0.2-0.1c0,0-0.1,0-0.1,0c0,0,0.5-0.2,0.4-0.2c0,0-0.2,0-0.2,0
				c0,0,0.3-0.1,0.3-0.1c0,0-0.2,0.1-0.2,0c0,0,0.3-0.1,0.2-0.1s-0.1,0-0.1,0c0,0,0.2-0.2,0.2-0.2c0,0-0.1,0.1-0.1,0
				c0,0,0.2-0.1,0.2-0.2c-0.1,0-0.3,0-0.4,0.1s-0.4,0.4-0.5,0.4c-0.1,0-0.4,0.2-0.4,0.2c-0.1,0-0.1,0.1-0.2,0.1
				c-0.1,0-0.1,0.1-0.2,0.1c0,0-0.3,0.1-0.3,0.1L388.8,132.3z M388.4,132.4C388.4,132.5,388.3,132.5,388.4,132.4
				C388.4,132.6,388.4,132.5,388.4,132.4l0.2,0c0.1,0,0.1,0,0.2,0c0.1,0,0.2,0,0.2,0s0.1,0,0.1,0s-0.2,0-0.3,0c-0.1,0-0.2,0-0.3,0
				S388.5,132.3,388.4,132.4L388.4,132.4z"/>
			<path class="st22" d="M388.7,132.4L388.7,132.4C388.7,132.4,388.7,132.4,388.7,132.4L388.7,132.4
				C388.7,132.5,388.7,132.5,388.7,132.4L388.7,132.4C388.6,132.5,388.6,132.5,388.7,132.4L388.7,132.4
				C388.6,132.4,388.6,132.4,388.7,132.4z"/>
			<path class="st22" d="M389.6,132.4c0,0,0.1,0,0.2,0c0.1,0.1,0.4,0,0.4,0.1c0,0,0,0.1-0.1,0.1s-0.2,0-0.2,0s0.1,0.1,0.1,0.1
				s-0.1,0-0.1,0c0,0,0.1,0,0.1,0c0,0-0.1,0-0.1,0c0,0,0,0,0,0c0,0-0.1,0-0.1,0s0,0,0,0s-0.1,0-0.1,0s0,0,0,0s-0.1,0-0.1,0s0,0,0,0
				s0,0-0.1,0s0,0,0,0s0,0,0,0s0,0.1,0,0.1s0,0,0,0s0,0.1,0,0.1s0,0-0.1,0s0,0,0,0s0,0,0,0s0,0,0,0s0,0,0,0c0,0,0,0,0,0s0,0,0,0
				s0,0,0,0c0,0,0,0,0,0s0,0,0,0s0,0,0,0l0,0c0,0,0,0-0.1,0s0,0,0,0c0,0,0-0.1,0-0.1s0.1,0,0.3,0c0.3-0.1,0.5-0.2,0.5-0.1
				L389.6,132.4z"/>
		</g>
	</g>
</g>
<rect x="270" class="st0" width="20" height="20"/>
<g>
	<path class="st23" d="M272.5,4.4h15v11.3h-15V4.4z"/>
	<path class="st24" d="M272.5,4.4h5v11.3h-5V4.4z"/>
	<path class="st25" d="M282.5,4.4h5v11.3h-5V4.4z"/>
</g>
</svg>
